<?xml version="1.0" encoding="UTF-8"?>
<svg width="360px" height="232px" viewBox="0 0 360 232" version="1.1" xmlns="http://www.w3.org/2000/svg" xmlns:xlink="http://www.w3.org/1999/xlink">
    <!-- Generator: sketchtool 43.2 (39069) - http://www.bohemiancoding.com/sketch -->
    <title>10lbRuckplate</title>
    <desc>Created with sketchtool.</desc>
    <defs>
        <path d="M0,39.9977474 C0,17.9076015 17.9139933,0 39.9992289,0 L320.000771,0 C342.091735,0 360,17.9154045 360,39.9977474 L360,192.002253 C360,214.092399 342.086007,232 320.000771,232 L39.9992289,232 C17.9082648,232 0,214.084595 0,192.002253 L0,39.9977474 Z M76,57.0026281 L76,81.9973719 C76,94.6949668 86.2994058,105 99.0043666,105 L260.995633,105 C273.703005,105 284,94.7013726 284,81.9973719 L284,57.0026281 C284,44.3050332 273.700594,34 260.995633,34 L99.0043666,34 C86.2969953,34 76,44.2986274 76,57.0026281 Z" id="path-1"></path>
    </defs>
    <g id="Page-1" stroke="none" stroke-width="1" fill="none" fill-rule="evenodd">
        <g id="10lbRuckplate">
            <g id="Combined-Shape">
                <use fill="#444444" fill-rule="evenodd" xlink:href="#path-1"></use>
                <path stroke="#000000" stroke-width="5" d="M2.5,39.9977474 C2.5,19.2903677 19.2926506,2.5 39.9992289,2.5 L320.000771,2.5 C340.708274,2.5 357.5,19.2933668 357.5,39.9977474 L357.5,192.002253 C357.5,212.709632 340.707349,229.5 320.000771,229.5 L39.9992289,229.5 C19.291726,229.5 2.5,212.706633 2.5,192.002253 L2.5,39.9977474 Z M73.5,57.0026281 L73.5,81.9973719 C73.5,96.0778257 84.9208407,107.5 99.0043666,107.5 L260.995633,107.5 C275.082882,107.5 286.5,96.0829188 286.5,81.9973719 L286.5,57.0026281 C286.5,42.9221743 275.079159,31.5 260.995633,31.5 L99.0043666,31.5 C84.9171177,31.5 73.5,42.9170812 73.5,57.0026281 Z"></path>
            </g>
        </g>
    </g>
</svg>