<?xml version="1.0" encoding="UTF-8"?>
<svg width="618px" height="1062px" viewBox="0 0 618 1062" version="1.1" xmlns="http://www.w3.org/2000/svg" xmlns:xlink="http://www.w3.org/1999/xlink">
    <!-- Generator: sketchtool 43.2 (39069) - http://www.bohemiancoding.com/sketch -->
    <title>GR1</title>
    <desc>Created with sketchtool.</desc>
    <defs>
        <path d="M35.7888522,101.296652 C39.0497422,65.6382949 68.038346,36.731485 100.557372,36.731485 C100.557372,36.731485 205.479571,25.939596 309.185424,25.939596 C412.891277,25.939596 516.596548,36.731485 516.596548,36.731485 C549.112837,36.731485 579.012036,65.5584547 583.120414,101.151717 C583.120414,101.151717 609.103579,290.340876 616.325678,543.950267 C623.547777,797.559658 607.94014,965.28014 607.94014,965.28014 C604.523506,1012.71527 563.091194,1051.16905 515.37507,1051.16905 C515.37507,1051.16905 376.789657,1061.96094 309.185424,1061.96094 C238.663037,1061.96094 100.995208,1051.16905 100.995208,1051.16905 C53.3057241,1051.16905 12.8694361,1012.60219 11.0525192,965.034298 C11.0525192,965.034298 -5.23554716,797.559658 1.98215178,543.950267 C9.19985072,290.340876 35.7888522,101.296652 35.7888522,101.296652 Z" id="path-1"></path>
    </defs>
    <g id="Page-1" stroke="none" stroke-width="1" fill="none" fill-rule="evenodd">
        <g id="GR1">
            <g id="Rectangle-3">
                <use fill="#333333" fill-rule="evenodd" xlink:href="#path-1"></use>
                <path stroke="#000000" stroke-width="5" d="M38.2784639,101.524322 C41.4260837,67.1045927 69.3842215,39.231485 100.557372,39.231485 L100.685604,39.231485 L100.813163,39.2183648 C100.862429,39.2132969 100.862429,39.2132969 101.11334,39.187812 C101.364087,39.162426 101.66282,39.1324285 102.00873,39.0979844 C102.998117,38.9994658 104.166494,38.8851361 105.507381,38.7563127 C109.340499,38.3880525 113.785917,37.9776224 118.791785,37.535561 C133.097375,36.272254 149.022878,35.0088469 166.153389,33.8296384 C213.752233,30.5530889 261.276556,28.5483595 305.625599,28.4438085 C306.815711,28.4410029 308.002333,28.439596 309.185424,28.439596 C354.492225,28.439596 403.048972,30.4607749 451.607659,33.829546 C468.60478,35.0087255 484.387387,36.2720982 498.550086,37.5353662 C503.505907,37.9774098 507.904844,38.3878213 511.696236,38.7560621 C513.0225,38.8848762 514.17789,38.9991965 515.156072,39.0977055 C515.498052,39.1321449 515.793356,39.1621377 516.041193,39.187519 C516.289161,39.2129968 516.289161,39.2129968 516.337788,39.2180576 L516.46682,39.231485 L516.596548,39.231485 C547.842382,39.231485 576.675044,67.1144926 580.636904,101.438378 C580.66048,101.614312 580.693876,101.859858 580.743317,102.22702 C580.825911,102.840369 580.92348,103.57235 581.03549,104.421473 C581.355756,106.849326 581.727371,109.727849 582.146057,113.04511 C583.342734,122.52643 584.676361,133.619543 586.112713,146.228988 C590.217256,182.261938 594.322055,223.214938 598.153335,268.324234 C605.618112,356.214145 611.117327,448.880081 613.826691,544.021431 C617.477301,672.215329 615.727567,788.193742 610.590229,887.668766 C609.465321,909.45053 608.260182,928.631897 607.055216,945.041622 C606.633635,950.782885 606.242249,955.767036 605.891109,959.972669 C605.768303,961.443523 605.659327,962.711723 605.565438,963.774592 C605.532628,964.146029 605.504059,964.46513 605.479891,964.73156 C605.455654,964.997369 605.455654,964.997369 605.450895,965.048497 C602.124003,1011.23011 561.778079,1048.66905 515.37507,1048.66905 L515.180978,1048.67659 C515.114051,1048.68181 515.114051,1048.68181 514.782868,1048.70744 C514.322756,1048.74294 514.061948,1048.76301 513.611182,1048.79755 C512.322886,1048.89627 510.815092,1049.0108 509.100595,1049.13981 C504.201342,1049.50848 498.628762,1049.9193 492.485207,1050.36174 C474.931687,1051.62588 456.32215,1052.89004 437.475634,1054.06988 C422.45954,1055.00992 407.905405,1055.85715 394.033375,1056.58891 C359.058104,1058.4339 330.090947,1059.46094 309.185424,1059.46094 C288.011844,1059.46094 259.517305,1058.49247 225.520906,1056.74509 C210.619629,1055.97918 194.958823,1055.07825 178.800134,1054.06985 C159.894737,1052.89003 141.290473,1051.6259 123.78781,1050.36178 C117.662082,1049.91935 112.111762,1049.50854 107.236882,1049.13988 C105.53093,1049.01087 104.031341,1048.89635 102.750616,1048.79764 C102.302508,1048.7631 101.913804,1048.73301 101.586067,1048.70753 C101.257023,1048.6819 101.257023,1048.6819 101.190585,1048.67669 L100.995208,1048.66905 C54.5890417,1048.66905 15.3140449,1011.10428 13.5506975,964.938876 L13.5407787,964.792297 C13.5357403,964.740504 13.5357403,964.740504 13.5100467,964.470896 C13.4844238,964.200632 13.4541352,963.876932 13.4193475,963.500137 C13.3197977,962.421889 13.2042495,961.135346 13.0740352,959.643233 C12.7017039,955.376724 12.2866947,950.320615 11.8396658,944.4967 C10.5619511,927.850569 9.28404728,908.394671 8.09121529,886.303353 C2.73593555,787.123258 0.84935999,671.631795 4.48113994,544.021388 C7.20125073,448.444439 12.8213655,355.401084 20.4815093,267.222663 C24.3726285,222.430715 28.5415334,181.780797 32.7101684,146.026334 C34.1689405,133.514417 35.523379,122.508809 36.7387248,113.103678 C37.1639367,109.813114 37.5413414,106.957976 37.8665942,104.550034 C37.9803459,103.707896 38.0794304,102.98197 38.1633045,102.373728 C38.213509,102.009652 38.247417,101.766202 38.2644853,101.644849 L38.2784639,101.524322 Z"></path>
            </g>
            <path d="M41.1463624,736.04589 C41.1463624,736.04589 173.51141,744.679402 309.864398,744.679402 C446.217386,744.679402 578.582433,736.04589 578.582433,736.04589 L578.582433,785.68858 C578.582433,785.68858 443.730193,794.322091 309.864398,794.322091 C175.998603,794.322091 41.1463624,785.68858 41.1463624,785.68858 L41.1463624,736.04589 Z" id="Rectangle-4" fill="#000000"></path>
            <path d="M41.1463624,824.53938 C41.1463624,824.53938 173.51141,833.172891 309.864398,833.172891 C446.217386,833.172891 578.582433,824.53938 578.582433,824.53938 L578.582433,874.182069 C578.582433,874.182069 443.730193,882.815581 309.864398,882.815581 C175.998603,882.815581 41.1463624,874.182069 41.1463624,874.182069 L41.1463624,824.53938 Z" id="Rectangle-4-Copy" fill="#000000"></path>
            <path d="M187.916052,32.4147294 C187.916052,32.4147294 248.890225,0.0390625 309.864398,0.0390625 C370.838571,0.0390625 431.812743,32.4147294 431.812743,32.4147294" id="Line" stroke="#000000" stroke-width="5" stroke-linecap="square"></path>
            <path d="M41.1463624,913.03287 C41.1463624,913.03287 173.51141,921.666381 309.864398,921.666381 C446.217386,921.666381 578.582433,913.03287 578.582433,913.03287 L578.582433,962.675559 C578.582433,962.675559 443.730193,971.30907 309.864398,971.30907 C175.998603,971.30907 41.1463624,962.675559 41.1463624,962.675559 L41.1463624,913.03287 Z" id="Rectangle-4-Copy-2" fill="#000000"></path>
            <path d="M45.463118,414.447599 C45.463118,414.447599 225.044726,355.080357 308.785209,332.429243 C392.525692,309.778129 480.299722,296.827862 572.1073,271.994665" id="Line-Copy" stroke="#000000" stroke-width="20" stroke-linecap="square"></path>
            <path d="M235.400364,99.1594941 C235.400364,98.0585527 236.299565,97.1660633 237.391636,97.1660633 L380.178782,97.1660633 C381.278531,97.1660633 382.170054,98.0707394 382.170054,99.1594941 L382.170054,183.666122 C382.170054,184.767063 381.270853,185.659553 380.178782,185.659553 L237.391636,185.659553 C236.291887,185.659553 235.400364,184.754877 235.400364,183.666122 L235.400364,99.1594941 Z" id="Rectangle-2-Copy" fill="#000000"></path>
        </g>
    </g>
</svg>