<?xml version="1.0" encoding="UTF-8"?>
<svg width="286px" height="496px" viewBox="0 0 286 496" version="1.1" xmlns="http://www.w3.org/2000/svg" xmlns:xlink="http://www.w3.org/1999/xlink">
    <!-- Generator: sketchtool 43.2 (39069) - http://www.bohemiancoding.com/sketch -->
    <title>GR1</title>
    <desc>Created with sketchtool.</desc>
    <defs>
        <path d="M16.517807,50.9137468 C18.028613,34.3928407 31.4593496,21 46.5257695,21 C46.5257695,21 95.1373697,16 143.185424,16 C191.233478,16 239.281263,21 239.281263,21 C254.346414,21 268.19904,34.3558498 270.102496,50.8465967 C270.102496,50.8465967 282.14078,138.5 285.486857,256 C288.832935,373.5 281.601746,451.206731 281.601746,451.206731 C280.018782,473.183946 260.82274,491 238.715339,491 C238.715339,491 174.507204,496 143.185424,496 C110.511632,496 46.7286236,491 46.7286236,491 C24.633565,491 5.8989913,473.131552 5.05719382,451.092829 C5.05719382,451.092829 -2.48924516,373.5 0.854793576,256 C4.19883231,138.5 16.517807,50.9137468 16.517807,50.9137468 Z" id="path-1"></path>
    </defs>
    <g id="Page-1" stroke="none" stroke-width="1" fill="none" fill-rule="evenodd">
        <g id="GR1">
            <g id="Rectangle-3">
                <use fill="#333333" fill-rule="evenodd" xlink:href="#path-1"></use>
                <path stroke="#000000" stroke-width="5" d="M19.0074187,51.1414172 C20.4047825,35.8610193 32.8035105,23.5 46.5257695,23.5 L46.6540014,23.5 L46.7815603,23.4868798 C46.8738343,23.4773888 47.0580302,23.4587405 47.3311445,23.431545 C47.7880073,23.3860527 48.3277855,23.3332336 48.9474754,23.2736979 C50.7200315,23.1034026 52.7762177,22.9135621 55.0919986,22.7090586 C61.7116237,22.1244886 69.0815089,21.5398185 77.009262,20.9940978 C99.0349284,19.4779227 121.025024,18.5503094 141.539281,18.501948 C142.089622,18.5006506 142.638342,18.5 143.185424,18.5 C164.141938,18.5 186.609151,19.4351997 209.078341,20.9940055 C216.944139,21.5396971 224.247665,22.1243328 230.800935,22.7088639 C233.093457,22.9133495 235.128036,23.1031715 236.881189,23.2734473 C237.49407,23.3329737 238.027797,23.3857834 238.479435,23.4312661 C238.74939,23.4584523 238.931391,23.4770912 239.022502,23.4865726 L239.151534,23.5 L239.281263,23.5 C253.051694,23.5 265.858999,35.8854734 267.618985,51.1332577 C267.633232,51.2412515 267.648691,51.3549158 267.67144,51.5238558 C267.709546,51.8068347 267.754592,52.1447737 267.806329,52.5369816 C267.954386,53.6593622 268.126238,54.9905274 268.319904,56.5249475 C268.873667,60.9124342 269.490904,66.0466128 270.155759,71.8832434 C272.056025,88.5652957 273.956548,107.526541 275.730503,128.412998 C279.186977,169.109347 281.733346,212.017592 282.98787,256.071164 C284.67817,315.427294 283.868035,369.125813 281.489624,415.179334 C280.96895,425.261234 280.411204,434.138492 279.853631,441.731746 C279.658638,444.387245 279.477655,446.691998 279.315337,448.636086 C279.258619,449.315399 279.208314,449.900828 279.165003,450.391133 C279.13915,450.683801 279.121455,450.878866 279.112501,450.975088 C277.619418,471.696846 259.511568,488.5 238.715339,488.5 L238.521247,488.507546 C238.396857,488.517232 238.152999,488.536074 237.7956,488.56346 C237.199321,488.60915 236.501353,488.662164 235.707626,488.721892 C233.439145,488.892595 230.858738,489.082828 228.013838,489.287708 C219.885047,489.873116 211.267153,490.458533 202.539848,491.004884 C195.586901,491.440156 188.848143,491.832434 182.425727,492.171223 C166.242918,493.024883 152.8425,493.5 143.185424,493.5 C133.403061,493.5 120.221514,493.051986 104.491612,492.243487 C97.5928949,491.8889 90.3419073,491.471769 82.860065,491.004854 C74.105665,490.458523 65.4903936,489.873128 57.3853387,489.287745 C54.5487727,489.082876 51.9787524,488.892653 49.7216367,488.721962 C48.9319021,488.662239 48.2377688,488.60923 47.6450306,488.563545 C47.2897776,488.536164 47.0475032,488.517328 46.9240012,488.507646 L46.7286236,488.5 C25.9473586,488.5 8.34475562,471.663904 7.55537212,450.997408 L7.54545341,450.850829 C7.53596907,450.75331 7.51721614,450.555509 7.48981181,450.258685 C7.4438949,449.761348 7.39056085,449.167513 7.33042684,448.478443 C7.15832497,446.506345 6.96642863,444.168447 6.75967504,441.474851 C6.16846122,433.772488 5.57705828,424.768465 5.02496047,414.543581 C2.5457097,368.627712 1.67223627,315.155841 3.35378173,256.071121 C4.61325977,211.816649 7.21556487,168.734397 10.7624364,127.905199 C12.5640617,107.1661 14.494223,88.3455937 16.4241146,71.7928766 C17.0993264,66.0015715 17.7261733,60.9080723 18.2885523,56.5560207 C18.4852257,55.0340348 18.6597443,53.7137684 18.8100952,52.6006762 C18.8626313,52.2117357 18.9083708,51.8766335 18.9470619,51.5960514 C18.9701566,51.4285717 18.9858523,51.3158811 18.9934401,51.2619437 L19.0074187,51.1414172 Z"></path>
            </g>
            <path d="M19,345 C19,345 80.3261719,349 143.5,349 C206.673828,349 268,345 268,345 L268,368 C268,368 205.521484,372 143.5,372 C81.4785156,372 19,368 19,368 L19,345 Z" id="Rectangle-4" fill="#000000"></path>
            <path d="M19,386 C19,386 80.3261719,390 143.5,390 C206.673828,390 268,386 268,386 L268,409 C268,409 205.521484,413 143.5,413 C81.4785156,413 19,409 19,409 L19,386 Z" id="Rectangle-4-Copy" fill="#000000"></path>
            <path d="M87,19 C87,19 115.25,4 143.5,4 C171.75,4 200,19 200,19" id="Line" stroke="#000000" stroke-width="5" stroke-linecap="square"></path>
            <path d="M19,427 C19,427 80.3261719,431 143.5,431 C206.673828,431 268,427 268,427 L268,450 C268,450 205.521484,454 143.5,454 C81.4785156,454 19,450 19,450 L19,427 Z" id="Rectangle-4-Copy-2" fill="#000000"></path>
            <path d="M21,196 C21,196 104.20212,168.494509 143,158 C181.79788,147.505491 222.464547,141.505491 265,130" id="Line-Copy" stroke="#000000" stroke-width="6" stroke-linecap="square"></path>
            <path d="M109,51.0052699 C109,49.8977899 109.897203,49 110.998284,49 L175.001716,49 C176.105338,49 177,49.8944731 177,51.0052699 L177,87.9947301 C177,89.1022101 176.102797,90 175.001716,90 L110.998284,90 C109.894662,90 109,89.1055269 109,87.9947301 L109,51.0052699 Z" id="Rectangle-2-Copy" fill="#000000"></path>
        </g>
    </g>
</svg>