<?xml version="1.0" encoding="UTF-8"?>
<svg width="317px" height="500px" viewBox="0 0 317 500" version="1.1" xmlns="http://www.w3.org/2000/svg" xmlns:xlink="http://www.w3.org/1999/xlink">
    <!-- Generator: sketchtool 43.2 (39069) - http://www.bohemiancoding.com/sketch -->
    <title>LargeRuckPlate</title>
    <desc>Created with sketchtool.</desc>
    <defs>
        <path d="M0,39.9930416 C0,17.9054946 17.908526,0 40.0077164,0 L276.992284,0 C299.087935,0 317,17.9057764 317,39.9930416 L317,460.006958 C317,482.094505 299.091474,500 276.992284,500 L40.0077164,500 C17.9120648,500 0,482.094224 0,460.006958 L0,39.9930416 Z M75,51.0045143 L75,68.9954857 C75,76.7243728 81.2701432,83 89.0047569,83 L227.995243,83 C235.733045,83 242,76.7299654 242,68.9954857 L242,51.0045143 C242,43.2756272 235.729857,37 227.995243,37 L89.0047569,37 C81.2669553,37 75,43.2700346 75,51.0045143 Z M74,418.006083 L74,436.993917 C74,444.734469 80.2701432,451 88.0047569,451 L226.995243,451 C234.733045,451 241,444.729263 241,436.993917 L241,418.006083 C241,410.265531 234.729857,404 226.995243,404 L88.0047569,404 C80.2669553,404 74,410.270737 74,418.006083 Z" id="path-1"></path>
    </defs>
    <g id="Page-1" stroke="none" stroke-width="1" fill="none" fill-rule="evenodd">
        <g id="LargeRuckPlate">
            <g id="Combined-Shape-Copy-2">
                <use fill="#444444" fill-rule="evenodd" xlink:href="#path-1"></use>
                <path stroke="#000000" stroke-width="5" d="M2.5,39.9930416 C2.5,19.2851559 19.290289,2.5 40.0077164,2.5 L276.992284,2.5 C297.707329,2.5 314.5,19.2865936 314.5,39.9930416 L314.5,460.006958 C314.5,480.714844 297.709711,497.5 276.992284,497.5 L40.0077164,497.5 C19.2926714,497.5 2.5,480.713406 2.5,460.006958 L2.5,39.9930416 Z M72.5,51.0045143 L72.5,68.9954857 C72.5,78.1068715 79.8912177,85.5 89.0047569,85.5 L227.995243,85.5 C237.112734,85.5 244.5,78.1117001 244.5,68.9954857 L244.5,51.0045143 C244.5,41.8931285 237.108782,34.5 227.995243,34.5 L89.0047569,34.5 C79.8872661,34.5 72.5,41.8882999 72.5,51.0045143 Z M71.5,418.006083 L71.5,436.993917 C71.5,446.113474 78.8877237,453.5 88.0047569,453.5 L226.995243,453.5 C236.112797,453.5 243.5,446.110935 243.5,436.993917 L243.5,418.006083 C243.5,408.886526 236.112276,401.5 226.995243,401.5 L88.0047569,401.5 C78.8872034,401.5 71.5,408.889065 71.5,418.006083 Z"></path>
            </g>
        </g>
    </g>
</svg>