<?xml version="1.0" encoding="UTF-8"?>
<svg width="234px" height="502px" viewBox="0 0 234 502" version="1.1" xmlns="http://www.w3.org/2000/svg" xmlns:xlink="http://www.w3.org/1999/xlink">
    <!-- Generator: sketchtool 43.2 (39069) - http://www.bohemiancoding.com/sketch -->
    <title>LargeSkinnyRuckPlate</title>
    <desc>Created with sketchtool.</desc>
    <defs>
        <path d="M0,29.9994432 C0,13.4312082 13.4319688,0 29.99306,0 L204.00694,0 C220.57165,0 234,13.4311728 234,29.9994432 L234,471.540557 C234,488.108792 220.568031,501.54 204.00694,501.54 L29.99306,501.54 C13.4283504,501.54 0,488.108827 0,471.540557 L0,29.9994432 Z M34,442.99847 L34,459.00153 C34,467.28659 40.7174933,474 49.0039413,474 L185.996059,474 C194.285569,474 201,467.284956 201,459.00153 L201,442.99847 C201,434.71341 194.282507,428 185.996059,428 L49.0039413,428 C40.7144312,428 34,434.715044 34,442.99847 Z M34,41.99847 L34,58.00153 C34,66.2865903 40.7174933,73 49.0039413,73 L185.996059,73 C194.285569,73 201,66.2849562 201,58.00153 L201,41.99847 C201,33.7134097 194.282507,27 185.996059,27 L49.0039413,27 C40.7144312,27 34,33.7150438 34,41.99847 Z" id="path-1"></path>
    </defs>
    <g id="Page-1" stroke="none" stroke-width="1" fill="none" fill-rule="evenodd">
        <g id="LargeSkinnyRuckPlate">
            <g id="Combined-Shape-Copy">
                <use fill="#444444" fill-rule="evenodd" xlink:href="#path-1"></use>
                <path stroke="#000000" stroke-width="5" d="M2.5,29.9994432 C2.5,14.8130975 14.8115035,2.5 29.99306,2.5 L204.00694,2.5 C219.190831,2.5 231.5,14.8117783 231.5,29.9994432 L231.5,471.540557 C231.5,486.726902 219.188497,499.04 204.00694,499.04 L29.99306,499.04 C14.8091687,499.04 2.5,486.728222 2.5,471.540557 L2.5,29.9994432 Z M31.5,442.99847 L31.5,459.00153 C31.5,468.666984 39.336463,476.5 49.0039413,476.5 L185.996059,476.5 C195.665098,476.5 203.5,468.666851 203.5,459.00153 L203.5,442.99847 C203.5,433.333016 195.663537,425.5 185.996059,425.5 L49.0039413,425.5 C39.3349021,425.5 31.5,433.333149 31.5,442.99847 Z M31.5,41.99847 L31.5,58.00153 C31.5,67.6669841 39.336463,75.5 49.0039413,75.5 L185.996059,75.5 C195.665098,75.5 203.5,67.6668507 203.5,58.00153 L203.5,41.99847 C203.5,32.3330159 195.663537,24.5 185.996059,24.5 L49.0039413,24.5 C39.3349021,24.5 31.5,32.3331493 31.5,41.99847 Z"></path>
            </g>
        </g>
    </g>
</svg>