<?xml version="1.0" encoding="UTF-8"?>
<svg width="300px" height="383px" viewBox="0 0 300 383" version="1.1" xmlns="http://www.w3.org/2000/svg" xmlns:xlink="http://www.w3.org/1999/xlink">
    <!-- Generator: sketchtool 43.2 (39069) - http://www.bohemiancoding.com/sketch -->
    <title>MediumRuckPlate</title>
    <desc>Created with sketchtool.</desc>
    <defs>
        <path d="M0,35.0040196 C0,15.6718334 15.6675681,0 35.0009456,0 L264.999054,0 C284.329543,0 300,15.6680144 300,35.0040196 L300,347.99598 C300,367.328167 284.332432,383 264.999054,383 L35.0009456,383 C15.6704571,383 0,367.331986 0,347.99598 L0,35.0040196 Z M67,43.0061432 L67,66.9938568 C67,75.2836461 73.7174933,82 82.0039413,82 L218.996059,82 C227.285569,82 234,75.2815208 234,66.9938568 L234,43.0061432 C234,34.7163539 227.282507,28 218.996059,28 L82.0039413,28 C73.7144312,28 67,34.7184792 67,43.0061432 Z M67,309.006143 L67,332.993857 C67,341.283646 73.7174933,348 82.0039413,348 L218.996059,348 C227.285569,348 234,341.281521 234,332.993857 L234,309.006143 C234,300.716354 227.282507,294 218.996059,294 L82.0039413,294 C73.7144312,294 67,300.718479 67,309.006143 Z" id="path-1"></path>
    </defs>
    <g id="Page-1" stroke="none" stroke-width="1" fill="none" fill-rule="evenodd">
        <g id="MediumRuckPlate">
            <g id="Combined-Shape-Copy">
                <use fill="#444444" fill-rule="evenodd" xlink:href="#path-1"></use>
                <path stroke="#000000" stroke-width="5" d="M2.5,35.0040196 C2.5,17.0514663 17.0493588,2.5 35.0009456,2.5 L264.999054,2.5 C282.950143,2.5 297.5,17.0500383 297.5,35.0040196 L297.5,347.99598 C297.5,365.948534 282.950641,380.5 264.999054,380.5 L35.0009456,380.5 C17.049857,380.5 2.5,365.949962 2.5,347.99598 L2.5,35.0040196 Z M64.5,43.0061432 L64.5,66.9938568 C64.5,76.6635966 72.3360201,84.5 82.0039413,84.5 L218.996059,84.5 C228.665384,84.5 236.5,76.6631296 236.5,66.9938568 L236.5,43.0061432 C236.5,33.3364034 228.66398,25.5 218.996059,25.5 L82.0039413,25.5 C72.3346159,25.5 64.5,33.3368704 64.5,43.0061432 Z M64.5,309.006143 L64.5,332.993857 C64.5,342.663597 72.3360201,350.5 82.0039413,350.5 L218.996059,350.5 C228.665384,350.5 236.5,342.66313 236.5,332.993857 L236.5,309.006143 C236.5,299.336403 228.66398,291.5 218.996059,291.5 L82.0039413,291.5 C72.3346159,291.5 64.5,299.33687 64.5,309.006143 Z"></path>
            </g>
        </g>
    </g>
</svg>