<?xml version="1.0" encoding="UTF-8"?>
<svg width="300px" height="192px" viewBox="0 0 300 192" version="1.1" xmlns="http://www.w3.org/2000/svg" xmlns:xlink="http://www.w3.org/1999/xlink">
    <!-- Generator: sketchtool 43.2 (39069) - http://www.bohemiancoding.com/sketch -->
    <title>SmallRuckPlate</title>
    <desc>Created with sketchtool.</desc>
    <defs>
        <path d="M0,34.9925054 C0,15.6666783 15.6675681,0 35.0009456,0 L264.999054,0 C284.329543,0 300,15.67144 300,34.9925054 L300,157.007495 C300,176.333322 284.332432,192 264.999054,192 L35.0009456,192 C15.6704571,192 0,176.32856 0,157.007495 L0,34.9925054 Z M66,43.0061432 L66,66.9938568 C66,75.2836461 72.7174933,82 81.0039413,82 L217.996059,82 C226.285569,82 233,75.2815208 233,66.9938568 L233,43.0061432 C233,34.7163539 226.282507,28 217.996059,28 L81.0039413,28 C72.7144312,28 66,34.7184792 66,43.0061432 Z" id="path-1"></path>
    </defs>
    <g id="Page-1" stroke="none" stroke-width="1" fill="none" fill-rule="evenodd">
        <g id="SmallRuckPlate">
            <g id="Combined-Shape">
                <use fill="#444444" fill-rule="evenodd" xlink:href="#path-1"></use>
                <path stroke="#000000" stroke-width="5" d="M2.5,34.9925054 C2.5,17.0464957 17.0491747,2.5 35.0009456,2.5 L264.999054,2.5 C282.947269,2.5 297.5,17.0505897 297.5,34.9925054 L297.5,157.007495 C297.5,174.953504 282.950825,189.5 264.999054,189.5 L35.0009456,189.5 C17.0527314,189.5 2.5,174.94941 2.5,157.007495 L2.5,34.9925054 Z M63.5,43.0061432 L63.5,66.9938568 C63.5,76.6635966 71.3360201,84.5 81.0039413,84.5 L217.996059,84.5 C227.665384,84.5 235.5,76.6631296 235.5,66.9938568 L235.5,43.0061432 C235.5,33.3364034 227.66398,25.5 217.996059,25.5 L81.0039413,25.5 C71.3346159,25.5 63.5,33.3368704 63.5,43.0061432 Z"></path>
            </g>
        </g>
    </g>
</svg>